<svg xmlns="http://www.w3.org/2000/svg" width="800" height="450" viewBox="0 0 800 450">
  <rect fill="#1a2332" width="800" height="450"/>
  <rect fill="#243044" x="50" y="50" width="700" height="350" rx="8"/>
  <rect fill="#3a4a60" x="80" y="80" width="150" height="80" rx="4"/>
  <rect fill="#3a4a60" x="250" y="80" width="150" height="80" rx="4"/>
  <rect fill="#3a4a60" x="420" y="80" width="150" height="80" rx="4"/>
  <rect fill="#4cd4a0" x="590" y="80" width="130" height="80" rx="4"/>
  <path fill="none" stroke="#4cd4a0" stroke-width="3" d="M80 300 L180 250 L280 280 L380 200 L480 230 L580 180 L680 220"/>
  <circle fill="#4cd4a0" cx="180" cy="250" r="6"/>
  <circle fill="#4cd4a0" cx="280" cy="280" r="6"/>
  <circle fill="#4cd4a0" cx="380" cy="200" r="6"/>
  <circle fill="#4cd4a0" cx="480" cy="230" r="6"/>
  <circle fill="#4cd4a0" cx="580" cy="180" r="6"/>
  <circle fill="#4cd4a0" cx="680" cy="220" r="6"/>
</svg>
