<svg xmlns="http://www.w3.org/2000/svg" width="800" height="450" viewBox="0 0 800 450">
  <rect fill="#1a2332" width="800" height="450"/>
  <rect fill="#243044" x="50" y="50" width="700" height="350" rx="8"/>
  <rect fill="#3a4a60" x="80" y="80" width="300" height="200" rx="4"/>
  <rect fill="#4cd4a0" x="100" y="100" width="100" height="20" rx="2"/>
  <rect fill="#3a4a60" x="100" y="140" width="260" height="15" rx="2"/>
  <rect fill="#3a4a60" x="100" y="165" width="240" height="15" rx="2"/>
  <rect fill="#3a4a60" x="100" y="190" width="220" height="15" rx="2"/>
  <rect fill="#3a4a60" x="100" y="215" width="250" height="15" rx="2"/>
  <rect fill="#3a4a60" x="100" y="240" width="200" height="15" rx="2"/>
  <rect fill="#243044" x="410" y="80" width="310" height="200" rx="4"/>
  <circle fill="#4cd4a0" cx="565" cy="180" r="60"/>
  <path fill="none" stroke="#1a2332" stroke-width="3" d="M535 160 L555 180 L595 140"/>
  <rect fill="#4cd4a0" x="80" y="310" width="150" height="40" rx="4"/>
  <rect fill="#3a4a60" x="250" y="310" width="150" height="40" rx="4"/>
</svg>
